<svg xmlns="http://www.w3.org/2000/svg" xmlns:xlink="http://www.w3.org/1999/xlink" width="32" height="32"><defs><clipPath id="clip1"><path d="M0 0h32v32H0z"/></clipPath><filter id="alpha" filterUnits="objectBoundingBox" x="0%" y="0%" width="100%" height="100%"><feColorMatrix in="SourceGraphic" values="0 0 0 0 1 0 0 0 0 1 0 0 0 0 1 0 0 0 1 0"/></filter><mask id="mask0"><g filter="url('#alpha')"><path style="fill:#000;fill-opacity:.929412;stroke:none" d="M0 0h32v32H0z"/></g></mask><g id="surface5" clip-path="url('#clip1')"><path style="stroke:none;fill-rule:nonzero;fill:#edc53f;fill-opacity:1" d="M4.992 0h22.016A4.991 4.991 0 0 1 32 4.992v22.016A4.991 4.991 0 0 1 27.008 32H4.992A4.991 4.991 0 0 1 0 27.008V4.992A4.991 4.991 0 0 1 4.992 0Zm0 0"/></g></defs><g id="surface1"><use xlink:href="#surface5" mask="url('#mask0')"/><path style="stroke:none;fill-rule:nonzero;fill:#fff;fill-opacity:.941176" d="M9.652 19.223H5v-1.059c.832-.836 3.25-2.71 3.004-3.793-.328-1.031-1.762-.328-1.977.14l-1.023-.78c1.059-1.63 4.324-1.442 4.418.656.015 1.66-1.633 2.675-2.598 3.59v.066h2.828Zm5.887-3.211c.008 1.914-.543 3.36-2.453 3.37-2.04-.003-2.516-1.464-2.508-3.359-.008-1.894.512-3.367 2.508-3.37 1.926.003 2.45 1.476 2.453 3.359Zm-3.598.011c.012.75.075 2.2 1.118 2.211 1.035.012 1.12-1.535 1.125-2.222-.012-.746-.051-2.188-1.114-2.192-1.074-.02-1.12 1.489-1.129 2.203Zm12.774-3.37c.91.003 2.183.398 2.183 1.577 0 .934-.39 1.145-1.136 1.551.82.496 1.34.867 1.347 1.84-.007 1.277-1.242 1.734-2.394 1.746-1.211-.012-2.406-.441-2.426-1.765.02-.954.578-1.493 1.184-1.797-.692-.426-1.016-.645-1-1.582-.016-1.164 1.261-1.567 2.242-1.57Zm-1.121 4.835c-.008.606.5.828 1.11.82.585.008 1.03-.238 1.038-.761.004-.883-1.039-1.27-1.039-1.27s-1.117.387-1.11 1.211Zm1.113-3.73c-.512-.004-.977.11-.98.605.003.575.968.969.968.969s.89-.387.903-1.008c-.02-.457-.407-.57-.891-.566ZM21.57 18.14h-.828v1.078h-1.23V18.14h-3.203v-1.188l3.128-4.144h1.305v4.242h.828Zm-2.058-3.598-1.922 2.508h1.922Zm0 0"/></g></svg>