<?xml version="1.0" encoding="UTF-8"?>
<svg xmlns="http://www.w3.org/2000/svg" xmlns:xlink="http://www.w3.org/1999/xlink" width="32px" height="32px" viewBox="0 0 32 32" version="1.1">
<defs>
<filter id="alpha" filterUnits="objectBoundingBox" x="0%" y="0%" width="100%" height="100%">
  <feColorMatrix type="matrix" in="SourceGraphic" values="0 0 0 0 1 0 0 0 0 1 0 0 0 0 1 0 0 0 1 0"/>
</filter>
<mask id="mask0">
  <g filter="url(#alpha)">
<rect x="0" y="0" width="32" height="32" style="fill:rgb(0%,0%,0%);fill-opacity:0.929412;stroke:none;"/>
  </g>
</mask>
<clipPath id="clip1">
  <rect x="0" y="0" width="32" height="32"/>
</clipPath>
<g id="surface5" clip-path="url(#clip1)">
<path style=" stroke:none;fill-rule:nonzero;fill:rgb(92.941177%,77.254903%,24.705882%);fill-opacity:1;" d="M 4.992188 0 L 27.007812 0 C 29.765625 0 32 2.234375 32 4.992188 L 32 27.007812 C 32 29.765625 29.765625 32 27.007812 32 L 4.992188 32 C 2.234375 32 0 29.765625 0 27.007812 L 0 4.992188 C 0 2.234375 2.234375 0 4.992188 0 Z M 4.992188 0 "/>
</g>
</defs>
<g id="surface1">
<use xlink:href="#surface5" mask="url(#mask0)"/>
<path style=" stroke:none;fill-rule:nonzero;fill:rgb(100%,100%,100%);fill-opacity:0.941176;" d="M 9.652344 19.222656 L 5 19.222656 L 5 18.164062 C 5.832031 17.328125 8.25 15.453125 8.003906 14.371094 C 7.675781 13.339844 6.242188 14.042969 6.027344 14.511719 L 5.003906 13.730469 C 6.0625 12.101562 9.328125 12.289062 9.421875 14.386719 C 9.4375 16.046875 7.789062 17.0625 6.824219 17.976562 L 6.824219 18.042969 L 9.652344 18.042969 Z M 15.539062 16.011719 C 15.546875 17.925781 14.996094 19.371094 13.085938 19.382812 C 11.046875 19.378906 10.570312 17.917969 10.578125 16.023438 C 10.570312 14.128906 11.089844 12.65625 13.085938 12.652344 C 15.011719 12.65625 15.535156 14.128906 15.539062 16.011719 Z M 11.941406 16.023438 C 11.953125 16.773438 12.015625 18.222656 13.058594 18.234375 C 14.09375 18.246094 14.179688 16.699219 14.183594 16.011719 C 14.171875 15.265625 14.132812 13.824219 13.070312 13.820312 C 11.996094 13.800781 11.949219 15.308594 11.941406 16.023438 Z M 24.714844 12.652344 C 25.625 12.65625 26.898438 13.050781 26.898438 14.230469 C 26.898438 15.164062 26.507812 15.375 25.761719 15.78125 C 26.582031 16.277344 27.101562 16.648438 27.109375 17.621094 C 27.101562 18.898438 25.867188 19.355469 24.714844 19.367188 C 23.503906 19.355469 22.308594 18.925781 22.289062 17.601562 C 22.308594 16.648438 22.867188 16.109375 23.472656 15.804688 C 22.78125 15.378906 22.457031 15.160156 22.472656 14.222656 C 22.457031 13.058594 23.734375 12.65625 24.714844 12.652344 Z M 23.59375 17.488281 C 23.585938 18.09375 24.09375 18.316406 24.703125 18.308594 C 25.289062 18.316406 25.734375 18.070312 25.742188 17.546875 C 25.746094 16.664062 24.703125 16.277344 24.703125 16.277344 C 24.703125 16.277344 23.585938 16.664062 23.59375 17.488281 Z M 24.707031 13.757812 C 24.195312 13.753906 23.730469 13.867188 23.726562 14.363281 C 23.730469 14.9375 24.695312 15.332031 24.695312 15.332031 C 24.695312 15.332031 25.585938 14.945312 25.597656 14.324219 C 25.578125 13.867188 25.191406 13.753906 24.707031 13.757812 Z M 21.570312 18.140625 L 20.742188 18.140625 L 20.742188 19.21875 L 19.511719 19.21875 L 19.511719 18.140625 L 16.308594 18.140625 L 16.308594 16.953125 L 19.4375 12.808594 L 20.742188 12.808594 L 20.742188 17.050781 L 21.570312 17.050781 Z M 19.511719 14.542969 L 17.589844 17.050781 L 19.511719 17.050781 Z M 19.511719 14.542969 "/>
</g>
</svg>
